<svg width="300" height="137" viewBox="0 0 300 137" fill="none" xmlns="http://www.w3.org/2000/svg">
<g id="flash-success">
<g id="light-clouds-lg">
<path id="Rectangle 3" d="M80 54C80 49.0294 84.0294 45 89 45H261C265.971 45 270 49.0294 270 54V54C270 58.9706 265.971 63 261 63H89C84.0294 63 80 58.9706 80 54V54Z" fill="#C7FF80" fill-opacity="0.31"/>
<rect id="Rectangle 4" x="45" y="81" width="209" height="18" rx="9" fill="#C7FF80" fill-opacity="0.31"/>
<rect id="Rectangle 5" y="117" width="195" height="18" rx="9" fill="#C7FF80" fill-opacity="0.31"/>
<path id="Vector 5" d="M225 63C210.366 63 208.6 81 225 81H184V63H225Z" fill="#C7FF80" fill-opacity="0.31"/>
<path id="Vector 6" d="M50 99C61.6 99 62.9999 117 50 117H82.4999V99H50Z" fill="#C7FF80" fill-opacity="0.31"/>
<path id="Vector 7" d="M117 99C104.508 99 103 117 117 117H82V99H117Z" fill="#C7FF80" fill-opacity="0.31"/>
</g>
<g id="light-clouds-sm">
<rect id="Rectangle 6" x="188" y="20" width="59" height="10" rx="5" fill="#C7FF80" fill-opacity="0.31"/>
<rect id="Rectangle 7" x="188" width="59" height="10" rx="5" fill="#C7FF80" fill-opacity="0.31"/>
<rect id="Rectangle 8" x="256" y="5" width="13" height="10" rx="5" fill="#C7FF80" fill-opacity="0.31"/>
<rect id="Rectangle 9" x="281" y="56" width="13" height="10" rx="5" fill="#C7FF80" fill-opacity="0.31"/>
<path id="Vector 8" d="M217 10C212.717 10 212.2 20 217 20H205V10H217Z" fill="#C7FF80" fill-opacity="0.31"/>
<path id="Vector 9" d="M193 10C197.283 10 197.8 20 193 20H205V10H193Z" fill="#C7FF80" fill-opacity="0.31"/>
</g>
<g id="misc-addons">
<circle id="Ellipse 1" cx="94.5" cy="25.5" r="6.5" stroke="#67C965" stroke-width="2"/>
<circle id="Ellipse 2" cx="223" cy="108" r="5" stroke="#67C965" stroke-opacity="0.4" stroke-width="2"/>
<g id="times">
<path id="Line 1" d="M294.273 44.6364H287" stroke="#67C965" stroke-width="2"/>
<line id="Line 2" y1="-1" x2="8" y2="-1" transform="matrix(0 -1 -1 0 289.909 49)" stroke="#67C965" stroke-width="2"/>
</g>
</g>
<g id="circle">
<ellipse id="checkmark__circle-bg--1" cx="150" cy="91" rx="48" ry="46" fill="#47A046" fill-opacity="0.41"/>
<circle id="checkmark__circle" cx="146.5" cy="84.5" r="47.5" fill="#D3F7D6"/>
<g id="outer-border-circle">
<path id="Vector 1" d="M128 41C116.5 44.5 99 61 99 83" stroke="#67C965" stroke-width="3"/>
<path id="Vector 2" d="M133 38.8774C168.5 28.8773 208 59.8773 190.5 106.877" stroke="#67C965" stroke-width="3"/>
<path id="Vector 3" d="M188 112C186.333 114.833 181.5 121 175.5 125" stroke="#67C965" stroke-width="3"/>
<path id="Vector 4" d="M171.5 127.5C160 138.5 119 142 104 111.5" stroke="#67C965" stroke-width="3"/>
</g>
</g>
<g id="checkmark">
<g id="checkmark-white">
<line id="small-check" x1="125.954" y1="82.8421" x2="142.954" y2="96.8421" stroke="white" stroke-width="3"/>
<line id="long-check" x1="142.012" y1="95.8711" x2="174.012" y2="67.8711" stroke="white" stroke-width="3"/>
</g>
<g id="checkmark-green">
<line id="small-check_2" x1="125.954" y1="84.8421" x2="142.954" y2="98.8421" stroke="#67C965" stroke-width="3"/>
<line id="long-check_2" x1="142.012" y1="97.8711" x2="174.012" y2="69.8711" stroke="#67C965" stroke-width="3"/>
</g>
</g>
</g>
</svg>
