<svg width="300" height="137" fill="none" xmlns="http://www.w3.org/2000/svg"><g fill="#C7FF80" fill-opacity=".31"><path d="M80 54a9 9 0 019-9h172a9 9 0 019 9 9 9 0 01-9 9H89a9 9 0 01-9-9z"/><rect x="45" y="81" width="209" height="18" rx="9"/><rect y="117" width="195" height="18" rx="9"/><path d="M225 63c-14.634 0-16.4 18 0 18h-41V63h41zM50 99c11.6 0 13 18 0 18h32.5V99H50z"/><path d="M117 99c-12.492 0-14 18 0 18H82V99h35z"/></g><g fill="#C7FF80" fill-opacity=".31"><rect x="188" y="20" width="59" height="10" rx="5"/><rect x="188" width="59" height="10" rx="5"/><rect x="256" y="5" width="13" height="10" rx="5"/><rect x="281" y="56" width="13" height="10" rx="5"/><path d="M217 10c-4.283 0-4.8 10 0 10h-12V10h12zm-24 0c4.283 0 4.8 10 0 10h12V10h-12z"/></g><g stroke="#67C965" stroke-width="2"><circle cx="94.5" cy="25.5" r="6.5"/><circle cx="223" cy="108" r="5" stroke-opacity=".4"/><path d="M294.273 44.636H287M290.909 49v-8"/></g><ellipse cx="150" cy="91" rx="48" ry="46" fill="#47A046" fill-opacity=".41"/><circle cx="146.5" cy="84.5" r="47.5" fill="#D3F7D6"/><path d="M128 41c-11.5 3.5-29 20-29 42m34-44.123c35.5-10 75 21 57.5 68M188 112c-1.667 2.833-6.5 9-12.5 13m-4 2.5c-11.5 11-52.5 14.5-67.5-16" stroke="#67C965" stroke-width="3"/><g stroke-width="3"><path d="M125.954 82.842l17 14m-.942-.971l32-28" stroke="#fff"/><path d="M125.954 84.842l17 14m-.942-.971l32-28" stroke="#67C965"/></g></svg>